<svg xmlns="http://www.w3.org/2000/svg" width="32" height="32" viewBox="0 0 32 32">
  <g fill="none" stroke="#166534" stroke-width="1.5">
    <!-- car body -->
    <path d="M4 20h24c1.1 0 2-.9 2-2v-3c0-1.1-.9-2-2-2h-2l-3-5c-.4-.6-1-.9-1.7-1H10.7c-.7 0-1.3.4-1.7 1L6 13H4c-1.1 0-2 .9-2 2v3c0 1.1.9 2 2 2z" fill="#14532d"/>
    <!-- windshield -->
    <path d="M10 13l2.5-4h7l2.5 4" fill="#4ade80" opacity=".5"/>
    <!-- front wheel -->
    <circle cx="9" cy="21" r="3" fill="#0f172a" stroke="#c8a415" stroke-width="1.5"/>
    <circle cx="9" cy="21" r="1" fill="#c8a415"/>
    <!-- rear wheel -->
    <circle cx="23" cy="21" r="3" fill="#0f172a" stroke="#c8a415" stroke-width="1.5"/>
    <circle cx="23" cy="21" r="1" fill="#c8a415"/>
    <!-- headlight -->
    <rect x="26" y="14" width="2" height="2" rx="0.5" fill="#c8a415"/>
    <!-- taillight -->
    <rect x="3" y="14" width="2" height="2" rx="0.5" fill="#ef4444"/>
  </g>
</svg>
